<?xml version="1.0" encoding="UTF-8" standalone="no"?>
<!-- Created with Inkscape (http://www.inkscape.org/) -->

<svg
   xmlns:dc="http://purl.org/dc/elements/1.1/"
   xmlns:cc="http://creativecommons.org/ns#"
   xmlns:rdf="http://www.w3.org/1999/02/22-rdf-syntax-ns#"
   xmlns:svg="http://www.w3.org/2000/svg"
   xmlns="http://www.w3.org/2000/svg"
   xmlns:xlink="http://www.w3.org/1999/xlink"
   xmlns:sodipodi="http://sodipodi.sourceforge.net/DTD/sodipodi-0.dtd"
   xmlns:inkscape="http://www.inkscape.org/namespaces/inkscape"
   width="1200"
   height="1200"
   viewBox="0 0 317.50001 317.49999"
   version="1.1"
   id="svg8"
   inkscape:version="0.92.3 (2405546, 2018-03-11)"
   sodipodi:docname="mvc.svg"
   inkscape:export-filename="C:\wamp64\www\OOP_template\public\assests\images\mvc.png"
   inkscape:export-xdpi="180"
   inkscape:export-ydpi="180">
  <defs
     id="defs2">
    <linearGradient
       inkscape:collect="always"
       id="linearGradient892">
      <stop
         style="stop-color:#ffffff;stop-opacity:1"
         offset="0"
         id="stop888" />
      <stop
         style="stop-color:#ffffff;stop-opacity:0"
         offset="1"
         id="stop890" />
    </linearGradient>
    <filter
       inkscape:collect="always"
       style="color-interpolation-filters:sRGB"
       id="filter836"
       x="-0.036545455"
       width="1.0730909"
       y="-0.03547059"
       height="1.0709412">
      <feGaussianBlur
         inkscape:collect="always"
         stdDeviation="1.2393876"
         id="feGaussianBlur838" />
    </filter>
    <clipPath
       clipPathUnits="userSpaceOnUse"
       id="clipPath840">
      <path
         inkscape:connector-curvature="0"
         id="path842"
         d="m 172.90355,167.68792 a 40.696309,41.929532 0 0 1 -40.69631,41.92953 40.696309,41.929532 0 0 1 -40.696311,-41.92953 40.696309,41.929532 0 0 1 40.696311,-41.92953 40.696309,41.929532 0 0 1 40.69631,41.92953 z"
         style="opacity:1;vector-effect:none;fill:none;fill-opacity:1;fill-rule:nonzero;stroke:#000000;stroke-width:0.26458332;stroke-linecap:butt;stroke-linejoin:miter;stroke-miterlimit:4;stroke-dasharray:none;stroke-dashoffset:0;stroke-opacity:1;paint-order:stroke fill markers" />
    </clipPath>
    <filter
       inkscape:collect="always"
       style="color-interpolation-filters:sRGB"
       id="filter884"
       x="-0.060151435"
       width="1.1203029"
       y="-0.059849326"
       height="1.1196986">
      <feGaussianBlur
         inkscape:collect="always"
         stdDeviation="1.7495435"
         id="feGaussianBlur886" />
    </filter>
    <linearGradient
       inkscape:collect="always"
       xlink:href="#linearGradient892"
       id="linearGradient894"
       x1="57.618114"
       y1="132.10068"
       x2="89.116035"
       y2="173.74854"
       gradientUnits="userSpaceOnUse" />
    <clipPath
       clipPathUnits="userSpaceOnUse"
       id="clipPath898">
      <path
         inkscape:connector-curvature="0"
         id="path900"
         d="m 117.85654,172.09228 a 35.054525,36.588602 0 0 1 -35.054529,36.5886 35.054525,36.588602 0 0 1 -35.054527,-36.5886 35.054525,36.588602 0 0 1 35.054527,-36.5886 35.054525,36.588602 0 0 1 35.054529,36.5886 z"
         style="opacity:1;vector-effect:none;fill:none;fill-opacity:1;fill-rule:nonzero;stroke:#000000;stroke-width:0.22938758;stroke-linecap:butt;stroke-linejoin:miter;stroke-miterlimit:4;stroke-dasharray:none;stroke-dashoffset:0;stroke-opacity:1;paint-order:stroke fill markers" />
    </clipPath>
    <linearGradient
       inkscape:collect="always"
       xlink:href="#linearGradient892"
       id="linearGradient916"
       gradientUnits="userSpaceOnUse"
       x1="57.618114"
       y1="132.10068"
       x2="89.116035"
       y2="173.74854" />
    <linearGradient
       inkscape:collect="always"
       xlink:href="#linearGradient892"
       id="linearGradient924"
       gradientUnits="userSpaceOnUse"
       x1="57.618114"
       y1="132.10068"
       x2="89.116035"
       y2="173.74854" />
    <linearGradient
       inkscape:collect="always"
       xlink:href="#linearGradient892"
       id="linearGradient951"
       gradientUnits="userSpaceOnUse"
       x1="57.618114"
       y1="132.10068"
       x2="89.116035"
       y2="173.74854" />
    <filter
       inkscape:collect="always"
       style="color-interpolation-filters:sRGB"
       id="filter1004"
       x="-0.06090909"
       width="1.1218182"
       y="-0.059117648"
       height="1.1182353">
      <feGaussianBlur
         inkscape:collect="always"
         stdDeviation="5.5170323"
         id="feGaussianBlur1006" />
    </filter>
  </defs>
  <sodipodi:namedview
     id="base"
     pagecolor="#ffffff"
     bordercolor="#666666"
     borderopacity="1.0"
     inkscape:pageopacity="0.0"
     inkscape:pageshadow="2"
     inkscape:zoom="0.99333333"
     inkscape:cx="600"
     inkscape:cy="600"
     inkscape:document-units="mm"
     inkscape:current-layer="layer4"
     showgrid="false"
     units="px"
     inkscape:window-width="2544"
     inkscape:window-height="1361"
     inkscape:window-x="1280"
     inkscape:window-y="0"
     inkscape:window-maximized="0" />
  <metadata
     id="metadata5">
    <rdf:RDF>
      <cc:Work
         rdf:about="">
        <dc:format>image/svg+xml</dc:format>
        <dc:type
           rdf:resource="http://purl.org/dc/dcmitype/StillImage" />
        <dc:title></dc:title>
      </cc:Work>
    </rdf:RDF>
  </metadata>
  <g
     inkscape:groupmode="layer"
     id="layer4"
     inkscape:label="base"
     style="display:inline">
    <path
       transform="translate(0,20.49999)"
       style="opacity:1;vector-effect:none;fill:none;fill-opacity:1;fill-rule:nonzero;stroke:#000000;stroke-width:8.46666667;stroke-linecap:butt;stroke-linejoin:miter;stroke-miterlimit:4;stroke-dasharray:none;stroke-dashoffset:0;stroke-opacity:1;paint-order:stroke fill markers;filter:url(#filter1004)"
       d="M 271.98865,149.89639 A 108.69377,111.98752 0 0 1 163.29488,261.88391 108.69377,111.98752 0 0 1 54.601106,149.89639 108.69377,111.98752 0 0 1 163.29488,37.90887 108.69377,111.98752 0 0 1 271.98865,149.89639 Z"
       id="path815"
       inkscape:connector-curvature="0" />
  </g>
  <g
     inkscape:groupmode="layer"
     id="layer2"
     inkscape:label="KLEUR"
     style="display:inline"
     transform="translate(0,107.49999)">
    <path
       inkscape:connector-curvature="0"
       id="path818"
       d="M 101.21434,57.932042 A 40.696308,41.929531 0 0 1 60.518047,99.861568 40.696308,41.929531 0 0 1 19.821735,57.932042 40.696308,41.929531 0 0 1 60.518047,16.002512 40.696308,41.929531 0 0 1 101.21434,57.932042 Z"
       style="opacity:1;vector-effect:none;fill:#940000;fill-opacity:1;fill-rule:nonzero;stroke:none;stroke-width:0.26458332;stroke-linecap:butt;stroke-linejoin:miter;stroke-miterlimit:4;stroke-dasharray:none;stroke-dashoffset:0;stroke-opacity:1;paint-order:stroke fill markers" />
    <path
       style="opacity:1;vector-effect:none;fill:#009413;fill-opacity:1;fill-rule:nonzero;stroke:none;stroke-width:0.26458332;stroke-linecap:butt;stroke-linejoin:miter;stroke-miterlimit:4;stroke-dasharray:none;stroke-dashoffset:0;stroke-opacity:1;paint-order:stroke fill markers"
       d="m 302.75168,62.193787 a 40.696308,41.929531 0 0 1 -40.6963,41.929533 40.696308,41.929531 0 0 1 -40.69631,-41.929533 40.696308,41.929531 0 0 1 40.69631,-41.92953 40.696308,41.929531 0 0 1 40.6963,41.92953 z"
       id="path906"
       inkscape:connector-curvature="0" />
    <path
       inkscape:connector-curvature="0"
       id="path908"
       d="m 202.78208,-42.139263 a 40.696308,41.929531 0 0 1 -40.6963,41.92951989 40.696308,41.929531 0 0 1 -40.69631,-41.92951989 40.696308,41.929531 0 0 1 40.69631,-41.929533 40.696308,41.929531 0 0 1 40.6963,41.929533 z"
       style="opacity:1;vector-effect:none;fill:#cf9800;fill-opacity:1;fill-rule:nonzero;stroke:none;stroke-width:0.26458332;stroke-linecap:butt;stroke-linejoin:miter;stroke-miterlimit:4;stroke-dasharray:none;stroke-dashoffset:0;stroke-opacity:1;paint-order:stroke fill markers" />
    <path
       inkscape:connector-curvature="0"
       id="path943"
       d="m 201.8016,162.87751 a 40.696308,41.929531 0 0 1 -40.6963,41.92953 40.696308,41.929531 0 0 1 -40.69631,-41.92953 40.696308,41.929531 0 0 1 40.69631,-41.92953 40.696308,41.929531 0 0 1 40.6963,41.92953 z"
       style="opacity:1;vector-effect:none;fill:#004e94;fill-opacity:1;fill-rule:nonzero;stroke:none;stroke-width:0.26458332;stroke-linecap:butt;stroke-linejoin:miter;stroke-miterlimit:4;stroke-dasharray:none;stroke-dashoffset:0;stroke-opacity:1;paint-order:stroke fill markers" />
  </g>
  <g
     inkscape:label="Laag 1"
     inkscape:groupmode="layer"
     id="layer1"
     transform="translate(0,20.49999)">
    <g
       id="g904"
       transform="translate(-22.107803,-26.103188)">
      <path
         transform="translate(-49.493314,3.34731)"
         clip-path="url(#clipPath840)"
         style="opacity:1;vector-effect:none;fill:none;fill-opacity:1;fill-rule:nonzero;stroke:#000000;stroke-width:1.58749998;stroke-linecap:butt;stroke-linejoin:miter;stroke-miterlimit:4;stroke-dasharray:none;stroke-dashoffset:0;stroke-opacity:1;paint-order:stroke fill markers;filter:url(#filter836)"
         d="m 172.90355,167.68792 a 40.696308,41.929531 0 0 1 -40.69631,41.92953 40.696308,41.929531 0 0 1 -40.69631,-41.92953 40.696308,41.929531 0 0 1 40.69631,-41.92953 40.696308,41.929531 0 0 1 40.69631,41.92953 z"
         id="path820"
         inkscape:connector-curvature="0" />
      <path
         clip-path="url(#clipPath898)"
         transform="matrix(1.1609431,0,0,1.1459725,-13.414499,-26.17779)"
         style="opacity:1;vector-effect:none;fill:none;fill-opacity:1;fill-rule:nonzero;stroke:url(#linearGradient894);stroke-width:6;stroke-linecap:butt;stroke-linejoin:miter;stroke-miterlimit:4;stroke-dasharray:none;stroke-dashoffset:0;stroke-opacity:1;paint-order:stroke fill markers;filter:url(#filter884)"
         d="m 117.70479,172.09228 a 34.902782,35.078958 0 0 1 -34.902776,35.07896 34.902782,35.078958 0 0 1 -34.90278,-35.07896 34.902782,35.078958 0 0 1 34.90278,-35.07896 34.902782,35.078958 0 0 1 34.902776,35.07896 z"
         id="path846"
         inkscape:connector-curvature="0" />
    </g>
    <g
       id="g914"
       transform="translate(179.34144,-21.841443)">
      <path
         inkscape:connector-curvature="0"
         id="path910"
         d="m 172.90355,167.68792 a 40.696308,41.929531 0 0 1 -40.69631,41.92953 40.696308,41.929531 0 0 1 -40.69631,-41.92953 40.696308,41.929531 0 0 1 40.69631,-41.92953 40.696308,41.929531 0 0 1 40.69631,41.92953 z"
         style="opacity:1;vector-effect:none;fill:none;fill-opacity:1;fill-rule:nonzero;stroke:#000000;stroke-width:1.58749998;stroke-linecap:butt;stroke-linejoin:miter;stroke-miterlimit:4;stroke-dasharray:none;stroke-dashoffset:0;stroke-opacity:1;paint-order:stroke fill markers;filter:url(#filter836)"
         clip-path="url(#clipPath840)"
         transform="translate(-49.493314,3.34731)" />
      <path
         inkscape:connector-curvature="0"
         id="path912"
         d="m 117.70479,172.09228 a 34.902782,35.078958 0 0 1 -34.902776,35.07896 34.902782,35.078958 0 0 1 -34.90278,-35.07896 34.902782,35.078958 0 0 1 34.90278,-35.07896 34.902782,35.078958 0 0 1 34.902776,35.07896 z"
         style="opacity:1;vector-effect:none;fill:none;fill-opacity:1;fill-rule:nonzero;stroke:url(#linearGradient916);stroke-width:6;stroke-linecap:butt;stroke-linejoin:miter;stroke-miterlimit:4;stroke-dasharray:none;stroke-dashoffset:0;stroke-opacity:1;paint-order:stroke fill markers;filter:url(#filter884)"
         transform="matrix(1.1609431,0,0,1.1459725,-13.414499,-26.17779)"
         clip-path="url(#clipPath898)" />
    </g>
    <g
       transform="translate(79.548017,-126.17449)"
       id="g922">
      <path
         transform="translate(-49.493314,3.34731)"
         clip-path="url(#clipPath840)"
         style="opacity:1;vector-effect:none;fill:none;fill-opacity:1;fill-rule:nonzero;stroke:#000000;stroke-width:1.58749998;stroke-linecap:butt;stroke-linejoin:miter;stroke-miterlimit:4;stroke-dasharray:none;stroke-dashoffset:0;stroke-opacity:1;paint-order:stroke fill markers;filter:url(#filter836)"
         d="m 172.90355,167.68792 a 40.696308,41.929531 0 0 1 -40.69631,41.92953 40.696308,41.929531 0 0 1 -40.69631,-41.92953 40.696308,41.929531 0 0 1 40.69631,-41.92953 40.696308,41.929531 0 0 1 40.69631,41.92953 z"
         id="path918"
         inkscape:connector-curvature="0" />
      <path
         clip-path="url(#clipPath898)"
         transform="matrix(1.1609431,0,0,1.1459725,-13.414499,-26.17779)"
         style="opacity:1;vector-effect:none;fill:none;fill-opacity:1;fill-rule:nonzero;stroke:url(#linearGradient924);stroke-width:6;stroke-linecap:butt;stroke-linejoin:miter;stroke-miterlimit:4;stroke-dasharray:none;stroke-dashoffset:0;stroke-opacity:1;paint-order:stroke fill markers;filter:url(#filter884)"
         d="m 117.70479,172.09228 a 34.902782,35.078958 0 0 1 -34.902776,35.07896 34.902782,35.078958 0 0 1 -34.90278,-35.07896 34.902782,35.078958 0 0 1 34.90278,-35.07896 34.902782,35.078958 0 0 1 34.902776,35.07896 z"
         id="path920"
         inkscape:connector-curvature="0" />
    </g>
    <g
       transform="translate(78.391357,78.842282)"
       id="g949">
      <path
         transform="translate(-49.493314,3.34731)"
         clip-path="url(#clipPath840)"
         style="opacity:1;vector-effect:none;fill:none;fill-opacity:1;fill-rule:nonzero;stroke:#000000;stroke-width:1.58749998;stroke-linecap:butt;stroke-linejoin:miter;stroke-miterlimit:4;stroke-dasharray:none;stroke-dashoffset:0;stroke-opacity:1;paint-order:stroke fill markers;filter:url(#filter836)"
         d="m 172.90355,167.68792 a 40.696308,41.929531 0 0 1 -40.69631,41.92953 40.696308,41.929531 0 0 1 -40.69631,-41.92953 40.696308,41.929531 0 0 1 40.69631,-41.92953 40.696308,41.929531 0 0 1 40.69631,41.92953 z"
         id="path945"
         inkscape:connector-curvature="0" />
      <path
         clip-path="url(#clipPath898)"
         transform="matrix(1.1609431,0,0,1.1459725,-13.414499,-26.17779)"
         style="opacity:1;vector-effect:none;fill:none;fill-opacity:1;fill-rule:nonzero;stroke:url(#linearGradient951);stroke-width:6;stroke-linecap:butt;stroke-linejoin:miter;stroke-miterlimit:4;stroke-dasharray:none;stroke-dashoffset:0;stroke-opacity:1;paint-order:stroke fill markers;filter:url(#filter884)"
         d="m 117.70479,172.09228 a 34.902782,35.078958 0 0 1 -34.902776,35.07896 34.902782,35.078958 0 0 1 -34.90278,-35.07896 34.902782,35.078958 0 0 1 34.90278,-35.07896 34.902782,35.078958 0 0 1 34.902776,35.07896 z"
         id="path947"
         inkscape:connector-curvature="0" />
    </g>
  </g>
  <g
     inkscape:groupmode="layer"
     id="layer3"
     inkscape:label="TEXTS">
    <text
       xml:space="preserve"
       style="font-style:normal;font-weight:normal;font-size:12.28808022px;line-height:1.25;font-family:sans-serif;letter-spacing:0px;word-spacing:0px;fill:#000000;fill-opacity:1;stroke:none;stroke-width:0.2304015"
       x="134.54547"
       y="73.515503"
       id="text929"
       transform="scale(1.0425357,0.95919977)"><tspan
         sodipodi:role="line"
         id="tspan927"
         x="134.54547"
         y="73.515503"
         style="font-style:normal;font-variant:normal;font-weight:bold;font-stretch:normal;font-family:Bahnschrift;-inkscape-font-specification:'Bahnschrift Bold';fill:#ffffff;fill-opacity:1;stroke-width:0.2304015">MODEL</tspan></text>
    <text
       id="text933"
       y="178.89185"
       x="42.417694"
       style="font-style:normal;font-weight:normal;font-size:12.28808022px;line-height:1.25;font-family:sans-serif;letter-spacing:0px;word-spacing:0px;fill:#000000;fill-opacity:1;stroke:none;stroke-width:0.2304015"
       xml:space="preserve"
       transform="scale(1.0425357,0.95919977)"><tspan
         style="font-style:normal;font-variant:normal;font-weight:bold;font-stretch:normal;font-family:Bahnschrift;-inkscape-font-specification:'Bahnschrift Bold';fill:#ffffff;fill-opacity:1;stroke-width:0.2304015"
         y="178.89185"
         x="42.417694"
         id="tspan931"
         sodipodi:role="line">VIEW</tspan></text>
    <text
       xml:space="preserve"
       style="font-style:normal;font-weight:normal;font-size:12.28808022px;line-height:1.25;font-family:sans-serif;letter-spacing:0px;word-spacing:0px;fill:#000000;fill-opacity:1;stroke:none;stroke-width:0.2304015"
       x="213.29091"
       y="179.9601"
       id="text941"
       transform="scale(1.0425357,0.95919977)"><tspan
         sodipodi:role="line"
         id="tspan939"
         x="213.29091"
         y="179.9601"
         style="font-style:normal;font-variant:normal;font-weight:bold;font-stretch:normal;font-family:Bahnschrift;-inkscape-font-specification:'Bahnschrift Bold';fill:#ffffff;fill-opacity:1;stroke-width:0.2304015">CONTROLLER</tspan></text>
    <text
       transform="scale(1.0425357,0.95919977)"
       id="text955"
       y="286.0372"
       x="138.17638"
       style="font-style:normal;font-weight:normal;font-size:12.28808022px;line-height:1.25;font-family:sans-serif;letter-spacing:0px;word-spacing:0px;fill:#000000;fill-opacity:1;stroke:none;stroke-width:0.2304015"
       xml:space="preserve"><tspan
         style="font-style:normal;font-variant:normal;font-weight:bold;font-stretch:normal;font-family:Bahnschrift;-inkscape-font-specification:'Bahnschrift Bold';fill:#ffffff;fill-opacity:1;stroke-width:0.2304015"
         y="286.0372"
         x="138.17638"
         id="tspan953"
         sodipodi:role="line">USER</tspan></text>
    <path
       sodipodi:nodetypes="cccccccc"
       inkscape:connector-curvature="0"
       id="path966"
       d="m 143.99925,96.995383 -34.84369,34.843697 5.87006,5.87007 -30.040916,5.36781 5.367812,-30.04092 5.116687,5.11669 34.843697,-34.8437 z"
       style="opacity:1;vector-effect:none;fill:#cf9800;fill-opacity:1;fill-rule:nonzero;stroke:#ffffff;stroke-width:6;stroke-linecap:butt;stroke-linejoin:miter;stroke-miterlimit:4;stroke-dasharray:none;stroke-dashoffset:0;stroke-opacity:1;paint-order:stroke fill markers" />
    <path
       sodipodi:nodetypes="cccccccc"
       inkscape:connector-curvature="0"
       id="path973"
       d="m 231.75,149.5345 -34.84369,-34.84369 -5.87007,5.87006 -5.36782,-30.04092 30.04093,5.36781 -5.11668,5.11669 34.84369,34.84369 z"
       style="opacity:1;vector-effect:none;fill:#009413;fill-opacity:1;fill-rule:nonzero;stroke:#effff1;stroke-width:6;stroke-linecap:butt;stroke-linejoin:miter;stroke-miterlimit:4;stroke-dasharray:none;stroke-dashoffset:0;stroke-opacity:1;paint-order:stroke fill markers" />
    <path
       sodipodi:nodetypes="cccccccc"
       inkscape:connector-curvature="0"
       id="path975"
       d="m 89.595628,187.14337 34.843692,34.84369 5.87007,-5.87007 5.36781,30.04092 -30.04092,-5.3678 5.11669,-5.1167 -34.84369,-34.84369 z"
       style="opacity:1;vector-effect:none;fill:#940000;fill-opacity:1;fill-rule:nonzero;stroke:#ffffff;stroke-width:6;stroke-linecap:butt;stroke-linejoin:miter;stroke-miterlimit:4;stroke-dasharray:none;stroke-dashoffset:0;stroke-opacity:1;paint-order:stroke fill markers" />
    <path
       sodipodi:nodetypes="cccccccc"
       inkscape:connector-curvature="0"
       id="path977"
       d="m 182.40719,241.01427 34.8437,-34.8437 -5.87006,-5.87006 30.04092,-5.36781 -5.36782,30.04092 -5.11668,-5.11669 -34.8437,34.8437 z"
       style="opacity:1;vector-effect:none;fill:#004e94;fill-opacity:1;fill-rule:nonzero;stroke:#ffffff;stroke-width:6;stroke-linecap:butt;stroke-linejoin:miter;stroke-miterlimit:4;stroke-dasharray:none;stroke-dashoffset:0;stroke-opacity:1;paint-order:stroke fill markers" />
  </g>
</svg>
